<svg xmlns="http://www.w3.org/2000/svg" preserveAspectRatio="xMidYMid" viewBox="0 0 256 256"><defs><linearGradient id="a" x1="37%" x2="178.1%" y1="51%" y2="41.9%"><stop offset="9%" stop-color="#FC801D"/><stop offset="23%" stop-color="#B07F61"/><stop offset="41%" stop-color="#577DB3"/><stop offset="53%" stop-color="#1E7CE6"/><stop offset="59%" stop-color="#087CFA"/></linearGradient><linearGradient id="b" x1="73.6%" x2="35.6%" y1="114.8%" y2="1.1%"><stop offset="0%" stop-color="#FE2857"/><stop offset="8%" stop-color="#CB3979"/><stop offset="16%" stop-color="#9E4997"/><stop offset="25%" stop-color="#7557B2"/><stop offset="34%" stop-color="#5362C8"/><stop offset="44%" stop-color="#386CDA"/><stop offset="54%" stop-color="#2373E8"/><stop offset="66%" stop-color="#1478F2"/><stop offset="79%" stop-color="#0B7BF8"/><stop offset="100%" stop-color="#087CFA"/></linearGradient><linearGradient id="c" x1="28.6%" x2="81.8%" y1="23.6%" y2="129.8%"><stop offset="0%" stop-color="#FE2857"/><stop offset="8%" stop-color="#FE295F"/><stop offset="21%" stop-color="#FF2D76"/><stop offset="30%" stop-color="#FF318C"/><stop offset="38%" stop-color="#EA3896"/><stop offset="55%" stop-color="#B248AE"/><stop offset="79%" stop-color="#5A63D6"/><stop offset="100%" stop-color="#087CFA"/></linearGradient></defs><path fill="url(#a)" d="M40.5 180.6 2.9 150.8l22.1-41 33.3 11.1z"/><path fill="#087CFA" d="m256 68.2-4.6 148.3-98.6 39.5-53.7-34.7z"/><path fill="url(#b)" d="m256 68.2-48.8 47.6L144.5 39l31-34.8z"/><path fill="url(#c)" d="m99.1 221.3-78.5 28.4 16.5-57.5 21.2-71.3L0 101.4 37.1 0l83.8 9.9 86.3 105.9z"/><path d="M49.1 48h160v160h-160z"/><path fill="#FFF" d="M69 177.8h60v10H69v-10ZM99 79V68H69.2v11h8.4v37.7h-8.4v11H99v-11h-8.3V79H99Zm28.5 49.4.2.1c-4.1.2-8.1-.8-11.8-2.6a27 27 0 0 1-7.7-6.3l8.2-9.2c1.5 1.7 3.2 3.1 5.2 4.3 1.7 1.1 3.7 1.7 5.7 1.6 2.2.2 4.3-.7 5.8-2.3a11 11 0 0 0 2.2-7.5V68h13.3v39a27 27 0 0 1-1.5 9.4c-1.7 5-5.7 9-10.8 10.6-2.8 1-5.8 1.5-8.8 1.4Z"/></svg>